HIERARCHY
ROOT joint_0
{
	OFFSET 0.000000 0.000000 0.000000
	CHANNELS 6 Xposition Yposition Zposition Zrotation Yrotation Xrotation 
	JOINT joint_1
	{
		OFFSET 0.000000 0.000000 0.000000
		CHANNELS 3 Zrotation Yrotation Xrotation
		JOINT joint_2
		{
			OFFSET 3.811170 -8.520760 0.839290
			CHANNELS 3 Zrotation Yrotation Xrotation
			JOINT joint_3
			{
				OFFSET 2.562200 -7.039590 0.000000
				CHANNELS 3 Zrotation Yrotation Xrotation
				JOINT joint_4
				{
					OFFSET 0.157640 -0.433110 2.322550
					CHANNELS 3 Zrotation Yrotation Xrotation
					End Site
					{
						OFFSET 0.000000 0.000000 0.000000
					}
				}
			}
		}
	}
	JOINT joint_5
	{
		OFFSET 0.000000 0.000000 0.000000
		CHANNELS 3 Zrotation Yrotation Xrotation
		JOINT joint_6
		{
			OFFSET -3.848050 -8.780180 0.839290
			CHANNELS 3 Zrotation Yrotation Xrotation
			JOINT joint_7
			{
				OFFSET -2.568260 -7.056230 0.000000
				CHANNELS 3 Zrotation Yrotation Xrotation
				JOINT joint_8
				{
					OFFSET -0.164730 -0.452590 2.363150
					CHANNELS 3 Zrotation Yrotation Xrotation
					End Site
					{
						OFFSET 0.000000 0.000000 0.000000
					}
				}
			}
		}
	}
	JOINT joint_9
	{
		OFFSET 0.028270 2.035590 -0.193380
		CHANNELS 3 Zrotation Yrotation Xrotation
		JOINT joint_10
		{
			OFFSET 0.056720 2.048850 -0.042750
			CHANNELS 3 Zrotation Yrotation Xrotation
			JOINT joint_11
			{
				OFFSET -0.054170 1.746240 0.172020
				CHANNELS 3 Zrotation Yrotation Xrotation
				JOINT joint_12
				{
					OFFSET 0.104070 1.761360 -0.123970
					CHANNELS 3 Zrotation Yrotation Xrotation
					End Site
					{
						OFFSET 0.000000 0.000000 0.000000
					}
				}
			}
			JOINT joint_13
			{
				OFFSET 3.362410 1.200890 -0.311210
				CHANNELS 3 Zrotation Yrotation Xrotation
				JOINT joint_14
				{
					OFFSET 4.983000 -0.000000 -0.000000
					CHANNELS 3 Zrotation Yrotation Xrotation
					JOINT joint_15
					{
						OFFSET 3.483560 -0.000000 -0.000000
						CHANNELS 3 Zrotation Yrotation Xrotation
						JOINT joint_16
						{
							OFFSET 0.715260 -0.000000 -0.000000
							CHANNELS 3 Zrotation Yrotation Xrotation
							End Site
							{
								OFFSET 0.000000 0.000000 0.000000
							}
						}
					}
				}
			}
			JOINT joint_17
			{
				OFFSET -3.136600 1.374050 -0.404650
				CHANNELS 3 Zrotation Yrotation Xrotation
				JOINT joint_18
				{
					OFFSET -5.241900 -0.000000 -0.000000
					CHANNELS 3 Zrotation Yrotation Xrotation
					JOINT joint_19
					{
						OFFSET -3.444170 -0.000000 -0.000000
						CHANNELS 3 Zrotation Yrotation Xrotation
						JOINT joint_20
						{
							OFFSET -0.622530 -0.000000 -0.000000
							CHANNELS 3 Zrotation Yrotation Xrotation
							End Site
							{
								OFFSET 0.000000 0.000000 0.000000
							}
						}
					}
				}
			}
		}
	}
}
MOTION
Frames: 7
Frame Time: 0.031667
4.847296 15.567984 -2.364512 -5.013435 -25.555210 3.808602 -10.825218 11.548315 -21.053839 -2.837718 11.415742 22.431684 0.229054 -6.566944 -10.900532 1.094292 -2.135827 -8.929883 6.860869 4.970289 -13.260046 1.801349 -11.720592 24.208296 -2.783132 1.818825 -9.937993 -1.738040 2.600554 -5.796066 3.927685 2.748405 -0.233754 -1.097318 0.602840 -4.061052 3.737159 2.145665 11.919885 2.282034 2.107706 3.369221 -52.200886 -23.910003 21.812585 47.256700 -54.277664 -25.444925 -0.602303 5.284826 4.442802 -7.496037 0.300123 -0.287894 89.087856 28.370268 36.636437 -54.230791 57.531009 -26.995934 -0.858151 0.073675 4.644987 6.599605 0.232425 -0.240452 
4.817107 15.564921 -2.375835 -4.960369 -25.233309 3.832239 -8.039768 14.274803 -21.541589 -3.373632 11.768818 24.005707 0.635384 -10.165599 -14.710065 1.531021 -1.672494 -7.259794 5.106045 2.244727 -10.564093 4.173078 -11.412033 21.605368 -3.697239 6.230307 -7.378879 -1.679006 1.907572 -3.922330 4.224915 2.544354 -0.474972 -1.874412 -1.070254 -3.540502 3.676319 2.607123 12.541765 2.746570 2.275801 3.577890 -48.089768 -26.831700 17.645197 47.218066 -56.424348 -24.403141 -0.796396 4.465653 5.689430 -7.448361 0.258694 -0.238930 95.223448 31.365856 37.408373 -56.781609 60.050858 -27.117426 -0.968760 -0.187064 6.229525 6.715246 0.208329 -0.208018 
4.786918 15.561857 -2.387158 -4.907456 -24.911741 3.856510 -6.465750 14.411427 -24.130656 -3.352749 13.623379 27.376937 0.595405 -8.419275 -18.480712 1.923567 -2.210064 -8.298425 4.293733 -0.017389 -5.224291 4.205630 -12.269926 19.967701 -2.484834 6.792474 -4.678965 -1.557727 1.179528 -1.961783 4.062203 3.334363 -1.991684 -3.311574 0.829723 -3.875257 5.367604 2.578116 11.388837 3.126771 1.806020 3.620466 -45.076192 -27.851769 14.206189 48.424412 -57.872356 -23.568027 -0.230380 4.908049 7.820700 -7.374504 0.179162 -0.159473 96.720975 33.142068 36.131543 -55.293079 60.401361 -24.962134 -0.665229 1.126980 6.104596 6.816835 0.122596 -0.124918 
4.756367 15.558990 -2.397638 -4.866138 -24.549143 3.883723 -6.815143 16.435319 -27.838429 -3.043165 14.905528 31.504180 1.063263 -9.190803 -18.893958 2.120803 -3.084299 -10.846247 3.520739 -1.596866 -1.343644 6.478299 -11.300202 20.082484 -3.260014 7.872914 -3.335925 -1.539550 0.579664 -0.162220 3.367448 4.236853 -1.632930 -3.326269 0.160185 -2.854749 5.594342 2.194416 10.481555 3.160793 1.681465 2.718368 -41.055623 -26.548858 10.258146 47.879483 -59.156043 -22.327789 -1.213317 5.539358 8.701725 -7.361607 0.169250 -0.150127 97.755158 33.239835 34.870454 -54.712875 62.028855 -23.951589 -0.705393 -0.176889 5.947150 6.801243 0.098590 -0.106085 
4.725811 15.556126 -2.408110 -4.825040 -24.186731 3.911492 -5.797580 17.131004 -30.095093 -4.938380 16.615183 33.950849 1.874903 -6.407777 -18.943542 2.496560 -4.404130 -14.408850 3.329949 -2.068934 -1.426904 7.589561 -12.688368 20.494087 -3.873086 8.230082 0.160728 -1.699622 -1.090810 4.411451 2.810488 3.887698 -1.620805 -4.082243 0.190170 -2.937317 6.942660 2.023899 9.718269 3.396669 1.494293 2.017809 -37.246174 -26.648936 8.169863 49.072120 -60.377704 -22.087395 -1.220296 7.063843 6.566118 -7.311861 0.126895 -0.104043 99.875669 35.115271 33.504807 -60.060346 65.142032 -23.663464 -0.537189 -0.469721 5.334144 6.841627 0.044075 -0.053421 
4.695186 15.553324 -2.417671 -4.793570 -23.777342 3.938570 -9.780047 17.269512 -32.156987 -4.996187 18.681569 34.047273 0.848671 -2.102532 -19.865936 2.865270 -6.205230 -19.761157 2.509614 -1.269670 0.382532 8.581797 -13.104850 19.354335 -2.902816 3.292434 -1.888528 -1.749624 -1.958084 6.928131 2.256723 5.233224 -0.804105 -5.084275 0.452709 -4.401117 8.488394 1.513952 7.403879 3.884326 1.570187 1.223858 -36.803427 -26.619542 6.754555 52.603971 -61.750387 -21.395987 -1.298081 7.699408 5.183666 -7.295316 0.113318 -0.086877 102.027890 37.775587 35.670917 -62.117077 65.969635 -22.861087 0.696641 -1.898740 4.057587 6.825705 0.023508 -0.033174 
4.664560 15.550523 -2.427211 -4.762252 -23.367880 3.965985 -8.934649 18.192729 -33.118464 -6.671964 18.363354 33.865962 1.235938 1.137641 -18.392100 3.046208 -7.563107 -24.106526 2.551137 0.453793 2.457578 11.505308 -12.756014 17.558764 -1.873834 -0.494647 -4.384566 -1.975966 -2.443372 8.444708 1.737324 3.420264 -0.421629 -5.036836 -0.067288 -3.955564 9.141249 0.625472 5.564947 4.336214 1.738649 0.193095 -36.012203 -25.378999 6.458907 49.310005 -62.341831 -18.697653 -1.304138 7.382880 3.155964 -7.312180 0.122536 -0.097343 102.963631 38.368064 35.747495 -62.620105 68.385699 -21.563729 -0.375261 -0.717906 3.727970 6.803689 0.022149 -0.035625 
